<svg version="1.1" id="Layer_1" xmlns="http://www.w3.org/2000/svg" xmlns:xlink="http://www.w3.org/1999/xlink" x="0px" y="0px"
	 width="100%" viewBox="0 0 280 280" enable-background="new 0 0 280 280" xml:space="preserve">
<path fill="#FEFFFF" opacity="1.000000" stroke="none" 
	d="
M1.000000,103.000000 
	C1.000000,68.666679 1.000000,34.833363 1.000000,1.000032 
	C94.333282,1.000021 187.666565,1.000021 280.999878,1.000011 
	C280.999939,94.333244 280.999939,187.666489 280.999969,280.999817 
	C187.666794,280.999878 94.333595,280.999878 1.000196,280.999939 
	C1.000000,221.833328 1.000000,162.666672 1.000000,103.000000 
M56.300716,47.090813 
	C53.133892,50.363808 49.967068,53.636803 46.212971,57.214546 
	C45.397011,58.045380 44.496925,58.809483 43.777279,59.716717 
	C20.366053,89.230560 10.261715,122.480507 15.880774,160.040634 
	C24.301004,216.324966 70.694763,260.848450 127.053925,266.860931 
	C182.876495,272.816132 235.953827,241.395523 257.680939,189.532608 
	C280.310944,135.514496 262.830261,72.754990 215.120392,38.703117 
	C180.137878,13.735119 141.826508,7.890327 100.820656,21.019629 
	C84.294212,26.311087 69.523323,34.756218 56.300716,47.090813 
z"/>
<path fill="#1BD1FF" opacity="1.000000" stroke="none" 
	d="
M56.913063,46.799171 
	C69.523323,34.756218 84.294212,26.311087 100.820656,21.019629 
	C141.826508,7.890327 180.137878,13.735119 215.120392,38.703117 
	C262.830261,72.754990 280.310944,135.514496 257.680939,189.532608 
	C235.953827,241.395523 182.876495,272.816132 127.053925,266.860931 
	C70.694763,260.848450 24.301004,216.324966 15.880774,160.040634 
	C10.261715,122.480507 20.366053,89.230560 43.777279,59.716717 
	C44.496925,58.809483 45.397011,58.045380 46.781448,57.211647 
	C47.588200,57.544758 47.826469,57.880764 47.915520,58.508904 
	C37.419056,71.340675 28.919794,84.866493 23.639721,100.430534 
	C13.385975,130.655396 14.235616,160.656784 26.807615,189.675995 
	C41.418579,223.401611 66.520180,246.676300 101.626869,258.575104 
	C131.312729,268.636597 160.921371,267.483093 189.430206,255.152710 
	C223.325073,240.492813 246.843079,215.338684 258.617340,179.995911 
	C269.465729,147.432281 266.858032,115.563782 251.655273,84.973030 
	C241.689377,64.919830 226.971939,48.860382 208.015030,36.622723 
	C189.506088,24.674253 169.308456,18.191101 147.467209,17.052588 
	C113.591095,15.286737 84.030823,26.403070 57.934464,47.924255 
	C57.407993,47.456078 57.160530,47.127625 56.913063,46.799171 
z"/>
<path fill="#11CFFF" opacity="1.000000" stroke="none" 
	d="
M56.606888,46.944992 
	C57.160530,47.127625 57.407993,47.456078 57.779945,48.227821 
	C54.624538,51.852997 51.344643,55.034885 48.064743,58.216774 
	C47.826469,57.880764 47.588200,57.544758 47.075081,57.059273 
	C49.967068,53.636803 53.133892,50.363808 56.606888,46.944992 
z"/>
<path fill="#FDFEFE" opacity="1.000000" stroke="none" 
	d="
M47.915520,58.508904 
	C51.344643,55.034885 54.624538,51.852997 58.058956,48.367546 
	C84.030823,26.403070 113.591095,15.286737 147.467209,17.052588 
	C169.308456,18.191101 189.506088,24.674253 208.015030,36.622723 
	C226.971939,48.860382 241.689377,64.919830 251.655273,84.973030 
	C266.858032,115.563782 269.465729,147.432281 258.617340,179.995911 
	C246.843079,215.338684 223.325073,240.492813 189.430206,255.152710 
	C160.921371,267.483093 131.312729,268.636597 101.626869,258.575104 
	C66.520180,246.676300 41.418579,223.401611 26.807615,189.675995 
	C14.235616,160.656784 13.385975,130.655396 23.639721,100.430534 
	C28.919794,84.866493 37.419056,71.340675 47.915520,58.508904 
M58.682835,144.499283 
	C58.682835,151.275818 58.682835,158.052353 58.682835,164.766968 
	C62.250839,164.766968 65.312469,164.766968 68.998398,164.766968 
	C68.998398,153.987946 68.998398,143.541336 68.998398,132.153839 
	C73.540245,137.878632 77.345573,142.699539 81.177734,147.499023 
	C85.712326,153.178238 85.676178,153.134521 90.262932,147.202423 
	C94.058235,142.293930 97.979500,137.482819 101.844948,132.628555 
	C102.177536,132.791016 102.510132,132.953491 102.842720,133.115967 
	C102.842720,143.693420 102.842720,154.270889 102.842720,164.865814 
	C106.197334,164.865814 109.125549,164.865814 112.086205,164.865814 
	C112.086205,148.216354 112.086205,131.814148 112.086205,115.438339 
	C103.898201,114.775627 103.906410,114.782104 99.324448,120.588341 
	C94.802338,126.318703 90.261276,132.034119 85.540916,137.992935 
	C80.890503,132.086853 76.040321,126.603157 71.994553,120.579208 
	C68.637665,115.580940 64.665726,113.917107 58.682873,115.722473 
	C58.682873,124.901054 58.682873,134.200195 58.682835,144.499283 
M173.993423,151.493057 
	C173.993423,155.942368 173.993423,160.391663 173.993423,164.872894 
	C177.567886,164.872894 180.642426,164.872894 184.055267,164.872894 
	C184.055267,159.366379 184.055267,154.088120 184.055267,148.889404 
	C189.345413,147.452759 193.394882,148.278748 196.274109,153.047195 
	C197.545731,155.153198 199.895767,156.639969 201.030670,158.790726 
	C204.785004,165.905487 210.848709,165.844543 217.970459,164.696609 
	C213.165039,159.021042 208.617752,153.650314 203.861786,148.033142 
	C205.194702,147.321228 206.026779,146.892502 206.844345,146.437714 
	C213.847992,142.541916 216.792465,136.616959 215.510513,129.012238 
	C214.290131,121.772705 209.151886,116.457535 201.457367,115.579445 
	C196.274353,114.987953 190.969177,115.466759 185.552307,115.466759 
	C185.552307,118.403946 185.552307,121.000580 185.552307,124.234741 
	C190.193176,124.234741 194.650803,124.023521 199.078766,124.295433 
	C203.319916,124.555885 205.708405,127.117126 205.964996,131.411118 
	C206.231705,135.874420 204.152451,139.187195 199.778168,139.678253 
	C194.598343,140.259750 189.303314,139.814896 183.800446,139.814896 
	C183.800446,134.999893 183.800446,130.718140 183.800446,126.348213 
	C180.450348,126.348213 177.388168,126.348213 173.993423,126.348213 
	C173.993423,134.566849 173.993423,142.531418 173.993423,151.493057 
M145.713730,123.380669 
	C150.530045,124.398582 155.346375,125.416489 161.085510,126.629433 
	C161.794968,126.020622 163.561676,124.519821 165.303528,122.990723 
	C165.524231,122.796982 165.614731,122.454926 165.753159,122.174744 
	C156.418304,111.479729 138.377625,111.326988 127.986671,121.855019 
	C118.176796,131.794281 119.035347,150.752197 129.509735,159.999283 
	C139.786713,169.072113 159.799835,167.901489 165.919525,158.627594 
	C164.062531,156.450760 162.275040,154.355377 160.522415,152.300888 
	C153.123840,157.867706 145.174683,158.808456 138.975540,155.027267 
	C133.243927,151.531250 130.122742,144.389587 131.247253,137.343887 
	C132.484558,129.591507 136.781525,125.230438 145.713730,123.380669 
M173.773819,81.872780 
	C167.950363,81.543785 167.059509,77.699127 167.976807,72.688538 
	C163.023788,72.688538 158.627350,72.688538 154.260498,72.688538 
	C154.260498,77.414330 154.260498,81.800507 154.260498,85.786942 
	C157.035034,86.516968 160.681625,86.421478 161.443253,87.856819 
	C165.017395,94.592461 167.817276,101.740913 170.822220,108.772469 
	C171.034470,109.269135 170.626923,110.008720 170.582260,110.640625 
	C170.262009,115.172791 169.961090,119.706322 169.645111,124.371170 
	C174.854828,124.371170 179.231064,124.371170 184.404938,124.371170 
	C182.225174,116.272026 185.504944,110.776131 190.420532,104.875603 
	C195.660599,98.585579 201.526932,96.822037 209.153625,97.966362 
	C209.153625,92.903992 209.153625,88.636337 209.153625,83.641121 
	C204.090866,85.254669 198.309845,80.962265 194.030487,87.126648 
	C187.748154,85.482529 181.163406,83.759270 173.773819,81.872780 
M223.434860,108.320824 
	C218.576874,105.266937 216.168854,105.649864 213.147293,110.284332 
	C215.916702,109.909912 218.433975,109.569572 220.951248,109.229240 
	C221.066193,109.892296 221.181152,110.555359 221.296097,111.218414 
	C219.216858,111.856087 216.653336,111.958366 215.192566,113.279747 
	C213.686478,114.642120 213.254059,117.191376 212.241486,119.469765 
	C216.937698,119.469765 220.441956,119.469765 223.946213,119.469765 
	C223.974487,119.006752 224.002762,118.543739 224.031021,118.080719 
	C221.416306,117.735352 218.801590,117.389984 215.250793,116.920975 
	C223.782593,112.119926 223.782593,112.119926 223.434860,108.320824 
M159.765244,183.547668 
	C159.442993,182.812302 158.730377,181.999298 158.858795,181.353561 
	C160.166092,174.779953 158.900787,173.639938 152.218460,175.236038 
	C152.218460,178.547256 152.218460,181.748657 152.218460,184.950058 
	C152.555267,185.026291 152.892059,185.102539 153.228867,185.178772 
	C153.948151,184.249939 154.667419,183.321106 154.946472,182.960770 
	C156.765564,183.441330 158.363922,183.863556 159.765244,183.547668 
M174.450867,177.506943 
	C174.040573,176.532776 173.630280,175.558609 173.219986,174.584442 
	C172.857208,174.696838 172.494431,174.809235 172.131653,174.921646 
	C172.131653,178.109482 172.131653,181.297333 172.131653,184.691818 
	C175.084930,184.728363 178.585861,186.353455 179.468094,181.994339 
	C180.073792,179.001495 178.330322,177.329803 174.450867,177.506943 
M166.956665,177.654572 
	C165.252716,178.687744 163.325180,179.508621 162.001465,180.902817 
	C161.669098,181.252869 163.121262,184.431427 164.022491,184.570923 
	C165.655167,184.823654 167.490234,183.768814 169.240814,183.259842 
	C168.714066,181.468750 168.187317,179.677643 166.956665,177.654572 
M183.172775,184.651169 
	C185.104507,183.991623 187.203979,183.584381 188.847687,182.491608 
	C189.248627,182.225067 188.529373,178.781311 187.664291,178.431168 
	C186.133408,177.811493 183.191147,177.779327 182.498734,178.721130 
	C181.632202,179.899750 182.439880,182.309265 183.172775,184.651169 
M216.045105,184.626160 
	C216.213470,183.306564 216.320129,181.975464 216.563873,180.669937 
	C216.989517,178.390167 216.054932,176.858841 213.833862,177.557358 
	C212.611710,177.941711 211.377182,179.762817 211.028381,181.156448 
	C210.164948,184.606247 212.131744,185.559113 216.045105,184.626160 
M191.521317,183.080872 
	C192.766266,183.863602 194.011215,184.646317 196.187103,186.014328 
	C195.212021,181.472519 194.583435,178.544693 193.954865,175.616882 
	C193.085648,175.728088 192.216446,175.839294 191.347229,175.950485 
	C191.347229,178.078918 191.347229,180.207336 191.521317,183.080872 
M202.994736,179.452820 
	C203.349213,181.076462 203.222672,183.170547 204.207581,184.177582 
	C205.022202,185.010513 207.149384,184.559753 208.694992,184.677765 
	C208.765366,184.281830 208.835739,183.885895 208.906113,183.489960 
	C207.833740,182.788284 206.761368,182.086594 205.479370,181.247757 
	C206.866119,180.223541 207.866333,179.484833 208.866547,178.746109 
	C208.679626,178.279510 208.492722,177.812912 208.305801,177.346298 
	C206.666855,177.852951 205.027893,178.359589 202.994736,179.452820 
M70.560188,182.543945 
	C71.377090,181.302368 72.193985,180.060791 73.010880,178.819214 
	C72.436317,178.564850 71.861748,178.310471 71.287178,178.056091 
	C70.895103,179.373657 70.503029,180.691208 70.560188,182.543945 
M73.374077,183.478516 
	C73.374077,183.478516 73.565475,183.583969 73.565475,183.583969 
	C73.565475,183.583969 73.535606,183.372894 73.374077,183.478516 
z"/>
<path fill="#060606" opacity="1.000000" stroke="none" 
	d="
M58.682854,143.999313 
	C58.682873,134.200195 58.682873,124.901054 58.682873,115.722473 
	C64.665726,113.917107 68.637665,115.580940 71.994553,120.579208 
	C76.040321,126.603157 80.890503,132.086853 85.540916,137.992935 
	C90.261276,132.034119 94.802338,126.318703 99.324448,120.588341 
	C103.906410,114.782104 103.898201,114.775627 112.086205,115.438339 
	C112.086205,131.814148 112.086205,148.216354 112.086205,164.865814 
	C109.125549,164.865814 106.197334,164.865814 102.842720,164.865814 
	C102.842720,154.270889 102.842720,143.693420 102.842720,133.115967 
	C102.510132,132.953491 102.177536,132.791016 101.844948,132.628555 
	C97.979500,137.482819 94.058235,142.293930 90.262932,147.202423 
	C85.676178,153.134521 85.712326,153.178238 81.177734,147.499023 
	C77.345573,142.699539 73.540245,137.878632 68.998398,132.153839 
	C68.998398,143.541336 68.998398,153.987946 68.998398,164.766968 
	C65.312469,164.766968 62.250839,164.766968 58.682835,164.766968 
	C58.682835,158.052353 58.682835,151.275818 58.682854,143.999313 
z"/>
<path fill="#050505" opacity="1.000000" stroke="none" 
	d="
M173.993423,150.994507 
	C173.993423,142.531418 173.993423,134.566849 173.993423,126.348213 
	C177.388168,126.348213 180.450348,126.348213 183.800446,126.348213 
	C183.800446,130.718140 183.800446,134.999893 183.800446,139.814896 
	C189.303314,139.814896 194.598343,140.259750 199.778168,139.678253 
	C204.152451,139.187195 206.231705,135.874420 205.964996,131.411118 
	C205.708405,127.117126 203.319916,124.555885 199.078766,124.295433 
	C194.650803,124.023521 190.193176,124.234741 185.552307,124.234741 
	C185.552307,121.000580 185.552307,118.403946 185.552307,115.466759 
	C190.969177,115.466759 196.274353,114.987953 201.457367,115.579445 
	C209.151886,116.457535 214.290131,121.772705 215.510513,129.012238 
	C216.792465,136.616959 213.847992,142.541916 206.844345,146.437714 
	C206.026779,146.892502 205.194702,147.321228 203.861786,148.033142 
	C208.617752,153.650314 213.165039,159.021042 217.970459,164.696609 
	C210.848709,165.844543 204.785004,165.905487 201.030670,158.790726 
	C199.895767,156.639969 197.545731,155.153198 196.274109,153.047195 
	C193.394882,148.278748 189.345413,147.452759 184.055267,148.889404 
	C184.055267,154.088120 184.055267,159.366379 184.055267,164.872894 
	C180.642426,164.872894 177.567886,164.872894 173.993423,164.872894 
	C173.993423,160.391663 173.993423,155.942368 173.993423,150.994507 
z"/>
<path fill="#070707" opacity="1.000000" stroke="none" 
	d="
M145.272644,123.468826 
	C136.781525,125.230438 132.484558,129.591507 131.247253,137.343887 
	C130.122742,144.389587 133.243927,151.531250 138.975540,155.027267 
	C145.174683,158.808456 153.123840,157.867706 160.522415,152.300888 
	C162.275040,154.355377 164.062531,156.450760 165.919525,158.627594 
	C159.799835,167.901489 139.786713,169.072113 129.509735,159.999283 
	C119.035347,150.752197 118.176796,131.794281 127.986671,121.855019 
	C138.377625,111.326988 156.418304,111.479729 165.759354,122.178162 
	C165.614731,122.454926 165.524231,122.796982 165.303528,122.990723 
	C163.561676,124.519821 161.794968,126.020622 161.085510,126.629433 
	C155.346375,125.416489 150.530045,124.398582 145.272644,123.468826 
z"/>
<path fill="#11CFFF" opacity="1.000000" stroke="none" 
	d="
M174.176239,81.954391 
	C181.163406,83.759270 187.748154,85.482529 194.030487,87.126648 
	C198.309845,80.962265 204.090866,85.254669 209.153625,83.641121 
	C209.153625,88.636337 209.153625,92.903992 209.153625,97.966362 
	C201.526932,96.822037 195.660599,98.585579 190.420532,104.875603 
	C185.504944,110.776131 182.225174,116.272026 184.404938,124.371170 
	C179.231064,124.371170 174.854828,124.371170 169.645111,124.371170 
	C169.961090,119.706322 170.262009,115.172791 170.582260,110.640625 
	C170.626923,110.008720 171.034470,109.269135 170.822220,108.772469 
	C167.817276,101.740913 165.017395,94.592461 161.443253,87.856819 
	C160.681625,86.421478 157.035034,86.516968 154.260498,85.786942 
	C154.260498,81.800507 154.260498,77.414330 154.260498,72.688538 
	C158.627350,72.688538 163.023788,72.688538 167.976807,72.688538 
	C167.059509,77.699127 167.950363,81.543785 174.176239,81.954391 
M193.902176,97.901810 
	C196.881714,92.266029 196.151886,90.266441 190.359695,88.682091 
	C183.166626,86.714546 175.945206,84.850548 169.149597,83.051315 
	C167.455750,84.872086 166.050232,86.382919 164.649811,87.879990 
	C164.729156,88.202278 164.765320,88.543068 164.894257,88.844109 
	C167.246384,94.335487 169.616241,99.819298 171.968933,105.310440 
	C174.902100,112.156395 179.752182,113.122337 185.050613,107.741402 
	C187.961182,104.785507 190.602249,101.564240 193.902176,97.901810 
z"/>
<path fill="#1AD1FF" opacity="1.000000" stroke="none" 
	d="
M223.624420,108.661957 
	C223.782593,112.119926 223.782593,112.119926 215.250793,116.920975 
	C218.801590,117.389984 221.416306,117.735352 224.031021,118.080719 
	C224.002762,118.543739 223.974487,119.006752 223.946213,119.469765 
	C220.441956,119.469765 216.937698,119.469765 212.241486,119.469765 
	C213.254059,117.191376 213.686478,114.642120 215.192566,113.279747 
	C216.653336,111.958366 219.216858,111.856087 221.296097,111.218414 
	C221.181152,110.555359 221.066193,109.892296 220.951248,109.229240 
	C218.433975,109.569572 215.916702,109.909912 213.147293,110.284332 
	C216.168854,105.649864 218.576874,105.266937 223.624420,108.661957 
z"/>
<path fill="#16D0FF" opacity="1.000000" stroke="none" 
	d="
M159.863754,183.916733 
	C158.363922,183.863556 156.765564,183.441330 154.946472,182.960770 
	C154.667419,183.321106 153.948151,184.249939 153.228867,185.178772 
	C152.892059,185.102539 152.555267,185.026291 152.218460,184.950058 
	C152.218460,181.748657 152.218460,178.547256 152.218460,175.236038 
	C158.900787,173.639938 160.166092,174.779953 158.858795,181.353561 
	C158.730377,181.999298 159.442993,182.812302 159.863754,183.916733 
z"/>
<path fill="#15D0FF" opacity="1.000000" stroke="none" 
	d="
M174.786774,177.547974 
	C178.330322,177.329803 180.073792,179.001495 179.468094,181.994339 
	C178.585861,186.353455 175.084930,184.728363 172.131653,184.691818 
	C172.131653,181.297333 172.131653,178.109482 172.131653,174.921646 
	C172.494431,174.809235 172.857208,174.696838 173.219986,174.584442 
	C173.630280,175.558609 174.040573,176.532776 174.786774,177.547974 
z"/>
<path fill="#19D1FF" opacity="1.000000" stroke="none" 
	d="
M167.308609,177.770569 
	C168.187317,179.677643 168.714066,181.468750 169.240814,183.259827 
	C167.490234,183.768814 165.655167,184.823654 164.022491,184.570923 
	C163.121262,184.431427 161.669098,181.252869 162.001465,180.902817 
	C163.325180,179.508621 165.252716,178.687744 167.308609,177.770569 
z"/>
<path fill="#18D0FF" opacity="1.000000" stroke="none" 
	d="
M182.848816,184.419312 
	C182.439880,182.309265 181.632202,179.899750 182.498734,178.721130 
	C183.191147,177.779327 186.133408,177.811493 187.664291,178.431168 
	C188.529373,178.781311 189.248627,182.225067 188.847687,182.491608 
	C187.203979,183.584381 185.104507,183.991623 182.848816,184.419312 
z"/>
<path fill="#17D0FF" opacity="1.000000" stroke="none" 
	d="
M215.640747,184.786255 
	C212.131744,185.559113 210.164948,184.606247 211.028381,181.156448 
	C211.377182,179.762817 212.611710,177.941711 213.833862,177.557358 
	C216.054932,176.858841 216.989517,178.390167 216.563873,180.669937 
	C216.320129,181.975464 216.213470,183.306564 215.640747,184.786255 
z"/>
<path fill="#20D2FF" opacity="1.000000" stroke="none" 
	d="
M191.434265,182.708313 
	C191.347229,180.207336 191.347229,178.078918 191.347229,175.950485 
	C192.216446,175.839294 193.085648,175.728088 193.954865,175.616882 
	C194.583435,178.544693 195.212021,181.472519 196.187103,186.014328 
	C194.011215,184.646317 192.766266,183.863602 191.434265,182.708313 
z"/>
<path fill="#21D2FF" opacity="1.000000" stroke="none" 
	d="
M203.191833,179.159531 
	C205.027893,178.359589 206.666855,177.852951 208.305801,177.346298 
	C208.492722,177.812912 208.679626,178.279510 208.866547,178.746109 
	C207.866333,179.484833 206.866119,180.223541 205.479370,181.247757 
	C206.761368,182.086594 207.833740,182.788284 208.906113,183.489960 
	C208.835739,183.885895 208.765366,184.281830 208.694992,184.677765 
	C207.149384,184.559753 205.022202,185.010513 204.207581,184.177582 
	C203.222672,183.170547 203.349213,181.076462 203.191833,179.159531 
z"/>
<path fill="#E4E4E4" opacity="1.000000" stroke="none" 
	d="
M70.335571,182.276367 
	C70.503029,180.691208 70.895103,179.373657 71.287178,178.056091 
	C71.861748,178.310471 72.436317,178.564850 73.010880,178.819214 
	C72.193985,180.060791 71.377090,181.302368 70.335571,182.276367 
z"/>
<path fill="#E4E4E4" opacity="1.000000" stroke="none" 
	d="
M73.454842,183.425705 
	C73.535606,183.372894 73.565475,183.583969 73.565475,183.583969 
	C73.565475,183.583969 73.374077,183.478516 73.454842,183.425705 
z"/>
<path fill="#F9FEFF" opacity="1.000000" stroke="none" 
	d="
M193.633499,98.182220 
	C190.602249,101.564240 187.961182,104.785507 185.050613,107.741402 
	C179.752182,113.122337 174.902100,112.156395 171.968933,105.310440 
	C169.616241,99.819298 167.246384,94.335487 164.894257,88.844109 
	C164.765320,88.543068 164.729156,88.202278 164.647263,87.886871 
	C166.050232,86.382919 167.455750,84.872086 169.149597,83.051315 
	C175.945206,84.850548 183.166626,86.714546 190.359695,88.682091 
	C196.151886,90.266441 196.881714,92.266029 193.633499,98.182220 
z"/>
</svg>